<svg width="40" height="41" viewBox="0 0 40 41" fill="none" xmlns="http://www.w3.org/2000/svg">
<path d="M27.2998 13.0242C28.1786 13.0702 28.6874 13.5761 28.7337 14.4039C28.7799 15.1857 28.0399 15.9216 27.2535 15.8296C26.4209 15.7376 25.9121 15.2777 25.9121 14.4039C25.9584 13.5301 26.4672 13.1162 27.2998 13.0242Z" fill="white"/>
<path d="M20.4541 31.5124C22.4894 31.5124 24.5708 31.5584 26.606 31.5124C28.7338 31.4204 30.769 29.7647 30.8615 27.6492C31.0465 23.3261 31.0465 19.0029 30.8615 14.6798C30.769 12.5183 28.7338 10.8166 26.5135 10.7706C22.4431 10.7246 18.3727 10.7246 14.3485 10.7706C12.0357 10.8166 10.0005 12.5643 9.90803 14.8638C9.76926 19.0489 9.76926 23.1881 9.90803 27.3732C10.0005 29.6728 11.9895 31.4204 14.3022 31.4664C16.3837 31.6044 18.4189 31.5124 20.4541 31.5124ZM20.3616 33.352C18.2339 33.352 16.1062 33.444 13.9785 33.352C10.9719 33.214 8.19658 30.5466 8.10407 27.5572C7.96531 23.3721 7.96531 19.2329 8.10407 15.0478C8.19658 11.8744 10.9719 9.11498 14.1635 9.06899C18.3264 8.977 22.5356 8.977 26.6985 9.06899C29.7976 9.16097 32.6192 11.7824 32.758 14.8178C32.8967 19.0949 32.8967 23.3721 32.758 27.6952C32.6654 30.6846 29.8439 33.26 26.7911 33.398C24.6171 33.398 22.4893 33.352 20.3616 33.352Z" fill="white"/>
<path d="M20.4541 16.5655C17.91 16.5655 15.7823 18.635 15.7823 21.1645C15.7823 23.648 17.8638 25.7176 20.3615 25.7636C22.9518 25.8096 25.0333 23.786 25.0795 21.2105C25.0795 18.681 22.9981 16.5655 20.4541 16.5655ZM20.4541 27.5572C16.8924 27.5572 13.9321 24.6598 13.9321 21.1185C13.9321 17.6692 16.8924 14.7718 20.3615 14.7258C23.9232 14.7258 26.8835 17.6692 26.8372 21.1645C26.8835 24.6598 23.9694 27.5572 20.4541 27.5572Z" fill="white"/>
<rect x="-0.5" y="0.5" width="39" height="40" transform="matrix(-1 0 0 1 39 0)" stroke="white"/>
</svg>
