<svg width="40" height="41" viewBox="0 0 40 41" fill="none" xmlns="http://www.w3.org/2000/svg">
<path d="M15.3033 11.0712C15.2571 9.92139 14.2394 8.95559 13.0831 9.00158C11.9267 9.00158 10.9553 10.0134 11.0016 11.1631C11.0478 12.3589 11.9729 13.2787 13.1756 13.2327C14.3782 13.1867 15.3496 12.1749 15.3033 11.0712ZM15.1645 14.4285H11.1866V28.4096H15.1645V14.4285ZM30.6599 28.4556C30.6599 24.7304 30.845 21.1431 30.5674 17.5098C30.4287 15.3943 28.5322 13.9686 26.3582 14.1065C24.8318 14.1985 23.3517 14.9344 21.8253 15.3943C21.8253 15.3483 21.779 14.8424 21.6865 14.4285H17.8011V28.4096H21.779C21.779 26.34 21.779 24.3624 21.779 22.4308C21.779 21.511 21.7327 20.5912 21.8715 19.7174C22.1028 18.4296 22.9816 17.6938 24.3693 17.7858C25.7569 17.8318 26.497 18.6136 26.6358 19.9933C26.7283 20.6832 26.682 21.419 26.682 22.1089C26.682 24.2245 26.682 26.34 26.682 28.5016H30.6599V28.4556Z" fill="white"/>
<rect x="-0.5" y="0.5" width="39" height="40" transform="matrix(-1 0 0 1 39 0)" stroke="white"/>
</svg>
