<svg width="180" height="97" viewBox="0 0 180 97" fill="none" xmlns="http://www.w3.org/2000/svg">
<path d="M1.3082 18.0769H1.56983C2.73532 18.0769 2.9256 18.0531 2.9256 17.7677V11.75C3.7343 11.7975 4.47165 11.8451 4.94736 11.8451C8.96708 11.8451 11.5835 9.96607 11.5835 6.25556C11.5835 2.09311 8.65788 0.951415 4.09108 0.951415H0.9752C0.214068 0.951415 0 0.9752 0 1.18927V17.7677C0 18.0531 0.118927 18.0769 1.3082 18.0769ZM4.73329 9.53794C4.30515 9.53794 3.52023 9.51415 2.9256 9.4428V3.28238H4.40029C6.89776 3.28238 8.63409 3.92459 8.63409 6.32691C8.63409 8.46759 7.25454 9.53794 4.73329 9.53794Z" fill="#3F51B5"/>
<path d="M18.0899 18.3147C21.9193 18.3147 24.1076 15.9124 24.1076 11.5359C24.1076 7.56375 22.0858 5.28035 18.518 5.28035C14.6648 5.28035 12.4765 7.68268 12.4765 12.0592C12.4765 16.0076 14.4983 18.3147 18.0899 18.3147ZM18.1375 15.9362C16.0919 15.9362 15.307 14.2474 15.307 11.8927C15.307 9.1098 16.4487 7.65889 18.4229 7.65889C20.4922 7.65889 21.2771 9.34765 21.2771 11.7024C21.2771 14.5091 20.1116 15.9362 18.1375 15.9362Z" fill="#3F51B5"/>
<path d="M30.2533 18.0769H30.4912C31.7042 18.0769 31.9421 18.0055 32.0134 17.7201L33.2741 13.3436C33.7498 11.6548 34.059 10.2515 34.3444 8.63409C34.6536 10.3229 34.9866 11.7262 35.4147 13.3198L36.6516 17.7439C36.7229 18.0055 36.8894 18.0769 38.2214 18.0769H38.3879C39.6248 18.0769 39.815 18.0055 39.934 17.6963C41.3849 13.9382 42.5266 9.84715 43.2639 5.8512C43.3115 5.58956 43.1212 5.51821 42.1222 5.51821H42.0033C40.814 5.51821 40.7665 5.58956 40.7189 5.87499C40.1718 9.01466 39.4107 12.5111 38.4117 15.5556C38.1976 14.4853 37.6744 12.5825 37.1987 10.7986L35.8667 5.82742C35.7953 5.61335 35.6764 5.51821 34.5347 5.51821H34.3206C33.1789 5.51821 33.0124 5.58956 32.9411 5.8512L31.6567 10.6558C31.1809 12.4635 30.7528 14.4139 30.4912 15.6032C30.2771 14.3902 29.849 12.3922 29.3733 10.6321L28.1126 5.87499C28.0413 5.58956 27.8748 5.51821 26.7331 5.51821H26.6379C25.3773 5.51821 25.2822 5.66092 25.3535 5.92256L28.7548 17.7439C28.8262 18.0293 29.0878 18.0769 30.2533 18.0769Z" fill="#3F51B5"/>
<path d="M50.5482 18.3147C52.1894 18.3147 53.8306 17.8866 55.0198 17.2444C55.2577 17.1017 55.329 17.0065 55.0436 16.2454L54.8771 15.7935C54.6155 15.1037 54.5203 15.0799 54.2587 15.1989C53.2359 15.6508 52.118 15.9362 50.9288 15.9362C48.7881 15.9362 47.6226 14.7707 47.4323 12.7252H55.329C55.5907 12.7252 55.6858 12.5349 55.6858 11.6786C55.6858 10.2039 55.4004 8.89573 54.8296 7.82539C53.9733 6.25556 52.4748 5.28035 50.3341 5.28035C46.7663 5.28035 44.5543 8.08703 44.5543 11.9878C44.5543 15.96 46.8852 18.3147 50.5482 18.3147ZM47.4323 10.7272C47.7415 8.65788 48.8119 7.61132 50.3579 7.61132C51.9991 7.61132 52.8316 9.03844 52.9505 10.7272H47.4323Z" fill="#3F51B5"/>
<path d="M59.7474 18.0769H59.8663C61.008 18.0769 61.1507 18.0055 61.1507 17.7677V14.5804C61.1507 11.9165 61.3886 10.3942 62.1259 9.34765C62.7681 8.44381 63.6482 7.87296 64.9564 7.77782C65.1942 7.75403 65.2894 7.65889 65.2894 6.65991V6.37448C65.2894 5.61335 65.2894 5.49442 65.0515 5.39928C64.8612 5.32793 64.6471 5.30414 64.4093 5.30414C62.9346 5.30414 61.7929 6.37448 61.0556 8.32488C61.008 7.37347 60.8891 6.20798 60.8415 5.77985C60.8177 5.56578 60.6274 5.51821 59.6284 5.51821H59.4857C58.3678 5.51821 58.2727 5.61335 58.2965 5.87499C58.3678 7.1594 58.4154 8.99087 58.4154 10.6796V17.7677C58.4154 18.0055 58.4867 18.0769 59.7474 18.0769Z" fill="#3F51B5"/>
<path d="M72.3824 18.3147C74.0236 18.3147 75.6648 17.8866 76.8541 17.2444C77.0919 17.1017 77.1633 17.0065 76.8779 16.2454L76.7113 15.7935C76.4497 15.1037 76.3546 15.0799 76.0929 15.1989C75.0702 15.6508 73.9522 15.9362 72.763 15.9362C70.6223 15.9362 69.4568 14.7707 69.2665 12.7252H77.1633C77.4249 12.7252 77.5201 12.5349 77.5201 11.6786C77.5201 10.2039 77.2346 8.89573 76.6638 7.82539C75.8075 6.25556 74.309 5.28035 72.1683 5.28035C68.6005 5.28035 66.3885 8.08703 66.3885 11.9878C66.3885 15.96 68.7195 18.3147 72.3824 18.3147ZM69.2665 10.7272C69.5757 8.65788 70.6461 7.61132 72.1921 7.61132C73.8333 7.61132 74.6658 9.03844 74.7847 10.7272H69.2665Z" fill="#3F51B5"/>
<path d="M84.6023 18.3147C86.0532 18.3147 87.2663 17.7915 88.0512 16.84C88.2891 17.6488 88.9551 18.1482 89.9778 18.1482C90.5487 18.1482 91.072 18.0531 91.405 17.9342C91.5714 17.8628 91.619 17.7201 91.619 17.0065V16.7925C91.619 16.0551 91.5952 15.96 91.3336 15.96C90.7865 15.96 90.5487 15.8173 90.5487 15.0324V0.30921C90.5487 0.0713565 90.3822 0 89.2643 0H89.1216C87.9323 0 87.8134 0.0713565 87.8134 0.30921V6.32691C87.0284 5.66092 86.0057 5.28035 84.8878 5.28035C81.5578 5.28035 79.5123 7.99189 79.5123 12.0116C79.5123 15.9124 81.4151 18.3147 84.6023 18.3147ZM85.2683 15.96C83.3179 15.96 82.3427 14.4615 82.3427 11.9878C82.3427 9.25251 83.4131 7.68268 85.411 7.68268C86.3387 7.68268 87.1474 8.06324 87.8134 8.7768V13.2247C87.8134 14.3188 87.7182 14.8183 87.3614 15.2226C86.9333 15.6746 86.1246 15.96 85.2683 15.96Z" fill="#3F51B5"/>
<path d="M104.863 18.3147C109.026 18.3147 111.214 16.0076 111.214 11.5597C111.214 7.87296 109.478 5.28035 106.243 5.28035C104.911 5.28035 103.769 5.75606 102.96 6.56476V0.30921C102.96 0.0713565 102.77 0 101.676 0H101.533C100.344 0 100.225 0.0713565 100.225 0.30921V16.959C100.225 17.2444 100.296 17.4109 100.558 17.5298C101.438 17.9342 103.198 18.3147 104.863 18.3147ZM104.887 15.9838C104.221 15.9838 103.484 15.8886 102.96 15.6983V10.418C102.96 9.32387 102.984 8.87195 103.412 8.42002C103.84 7.9681 104.697 7.65889 105.553 7.65889C107.527 7.65889 108.383 9.08601 108.383 11.6073C108.383 14.3664 107.408 15.9838 104.887 15.9838Z" fill="#3F51B5"/>
<path d="M113.89 23.6902C116.982 23.6902 118.433 21.8825 119.765 18.0769L123.975 5.89877C124.07 5.61335 123.904 5.51821 122.762 5.51821H122.501C121.454 5.51821 121.335 5.58956 121.24 5.82742L119.623 11.0126C119.171 12.4873 118.766 13.962 118.41 15.3891C118.077 13.9144 117.696 12.5825 117.149 10.9175L115.436 5.82742C115.341 5.58956 115.198 5.51821 114.057 5.51821H113.771C112.535 5.51821 112.439 5.68471 112.535 5.97013L116.982 18.2196C116.102 20.6695 115.198 21.4068 113.7 21.4068C113.248 21.4068 112.677 21.2879 112.297 21.169C111.94 21.0501 111.845 21.169 111.631 21.9539L111.559 22.2155C111.369 22.9291 111.393 23.0718 111.654 23.2383C112.035 23.5 113.034 23.6902 113.89 23.6902Z" fill="#3F51B5"/>
<path d="M43.4788 78.1636V50.051C43.4788 47.8604 40.6092 46.0806 37.1119 46.0806C33.6146 46.0806 30.745 47.8604 30.745 50.051V78.1636C30.745 80.3541 33.6146 82.134 37.1119 82.134C40.6092 82.1796 43.4788 80.3541 43.4788 78.1636ZM14.6932 96.4641C6.9364 96.4641 0.65918 90.0749 0.65918 82.134V46.0806C0.65918 38.1397 6.9364 31.7505 14.6932 31.7505H59.5305C67.2874 31.7505 73.5646 38.1397 73.5646 46.0806V82.1796C73.5646 90.0749 67.2874 96.5097 59.5305 96.5097H14.6932V96.4641Z" fill="#009845"/>
<path d="M132.877 70.9939H136.419C136.599 70.9939 136.733 70.857 136.733 70.6744V69.4422C136.733 68.8033 135.792 68.3013 134.626 68.3013C133.46 68.3013 132.518 68.8033 132.518 69.4422V70.6744C132.563 70.857 132.698 70.9939 132.877 70.9939ZM132.563 77.2918C132.608 77.9308 133.46 78.3871 134.581 78.3871C135.702 78.3871 136.599 77.8851 136.599 77.2918V77.2462V76.2422C136.599 76.0596 136.733 75.9227 136.913 75.9227H144.131C144.4 75.9227 144.58 76.1509 144.58 76.3791V78.2046C144.58 80.3495 142.876 82.1294 140.769 82.1294H128.528C126.421 82.1294 124.717 80.3952 124.717 78.2046V68.3926C124.717 66.2476 126.421 64.4678 128.528 64.4678H140.769C142.876 64.4678 144.58 66.202 144.58 68.3926V74.1885V74.2341C144.58 74.508 144.356 74.6905 144.131 74.6905H136.554H133.505C132.967 74.6905 132.518 75.1469 132.518 75.6945V75.9227V77.2918H132.563Z" fill="#CE0E2D"/>
<path d="M73.5766 77.1549V69.4879C73.5766 68.8946 72.8144 68.3926 71.828 68.3926C70.8864 68.3926 70.0793 68.8946 70.0793 69.4879V77.1549C70.0793 77.7482 70.8416 78.2502 71.828 78.2502C72.8144 78.2502 73.5766 77.7482 73.5766 77.1549ZM65.7301 82.1294C63.6228 82.1294 61.9189 80.3952 61.9189 78.2046V68.3926C61.9189 66.2476 63.6228 64.4678 65.7301 64.4678H77.9707C80.078 64.4678 81.7818 66.202 81.7818 68.3926V78.2502C81.7818 80.3952 80.078 82.175 77.9707 82.175H65.7301V82.1294Z" fill="#CE0E2D"/>
<path d="M84.1265 82.1263C83.6781 82.1263 83.3643 81.7612 83.3643 81.3504V58.8513C83.3643 58.3949 83.723 58.0298 84.1265 58.0298H90.4486C90.8969 58.0298 91.2108 58.3949 91.2108 58.8513V81.3504C91.2108 81.8068 90.8521 82.1263 90.4486 82.1263H84.1265Z" fill="#CE0E2D"/>
<path d="M93.5658 63.5975C93.3865 63.5975 93.252 63.4606 93.252 63.2781V58.8513C93.252 58.3949 93.6106 58.0298 94.0142 58.0298H100.336C100.785 58.0298 101.098 58.3949 101.098 58.8513V63.2781C101.098 63.4606 100.964 63.5975 100.785 63.5975H93.5658Z" fill="#CE0E2D"/>
<path d="M93.252 65.1168C93.252 64.9343 93.3865 64.7974 93.5658 64.7974H100.829C101.009 64.7974 101.143 64.9343 101.143 65.1168V81.3637C101.143 81.82 100.785 82.1395 100.381 82.1395H94.059C93.6107 82.1395 93.2968 81.7744 93.2968 81.3637V65.1168H93.252Z" fill="#CE0E2D"/>
<path d="M111.088 65.416L113.196 75.6844C113.196 75.73 113.241 75.7756 113.33 75.7756C113.375 75.7756 113.42 75.73 113.465 75.6844L115.572 65.416C115.662 65.0509 115.976 64.7771 116.334 64.7771H123.688C123.957 64.7771 124.136 65.0053 124.136 65.2335C124.136 65.2791 124.136 65.3247 124.136 65.3704L120.415 81.4803C120.325 81.8454 120.011 82.1192 119.652 82.1192H113.33H107.008C106.649 82.1192 106.336 81.8454 106.246 81.4803L102.524 65.3247C102.524 65.2791 102.524 65.2335 102.524 65.1878C102.524 64.914 102.749 64.7314 102.973 64.7314H110.326C110.685 64.7771 110.999 65.0509 111.088 65.416Z" fill="#CE0E2D"/>
<path d="M153.906 58.0754C154.355 58.0754 154.669 58.4405 154.669 58.8969V64.419C154.669 64.6472 154.848 64.8297 155.072 64.8297H156.911C157.269 64.8297 157.583 65.1492 157.583 65.5143V70.0324C157.583 70.3975 157.269 70.7169 156.911 70.7169H155.072C154.848 70.7169 154.669 70.8995 154.669 71.1277V75.3719C154.669 75.9196 155.117 76.376 155.655 76.376H157.135C157.404 76.376 157.583 76.6041 157.583 76.8323V81.3961C157.583 81.8524 157.224 82.2175 156.821 82.2175H154.714H150.589C148.481 82.2175 146.777 80.4833 146.777 78.2927V58.8513C146.777 58.3949 147.136 58.0298 147.54 58.0298H153.906V58.0754Z" fill="#CE0E2D"/>
<path d="M166.563 58.0754C167.011 58.0754 167.325 58.4405 167.325 58.8969V64.419C167.325 64.6472 167.504 64.8297 167.728 64.8297H169.567C169.926 64.8297 170.239 65.1492 170.239 65.5143V70.0324C170.239 70.3975 169.926 70.7169 169.567 70.7169H167.728C167.504 70.7169 167.325 70.8995 167.325 71.1277V75.3719C167.325 75.9196 167.773 76.376 168.311 76.376H169.791C170.06 76.376 170.239 76.6041 170.239 76.8323V81.3961C170.239 81.8524 169.881 82.2175 169.477 82.2175H167.37H163.245C161.137 82.2175 159.434 80.4833 159.434 78.2927V58.8513C159.434 58.3949 159.792 58.0298 160.196 58.0298H166.563V58.0754Z" fill="#CE0E2D"/>
<path d="M172.404 63.5975C172.224 63.5975 172.09 63.4606 172.09 63.2781V58.8513C172.09 58.3949 172.449 58.0298 172.852 58.0298H179.174C179.623 58.0298 179.936 58.3949 179.936 58.8513V63.2781C179.936 63.4606 179.802 63.5975 179.623 63.5975H172.404Z" fill="#CE0E2D"/>
<path d="M172.09 65.1168C172.09 64.9343 172.224 64.7974 172.404 64.7974H179.667C179.847 64.7974 179.981 64.9343 179.981 65.1168V81.3637C179.981 81.82 179.622 82.1395 179.219 82.1395H172.897C172.449 82.1395 172.135 81.7744 172.135 81.3637V65.1168H172.09Z" fill="#CE0E2D"/>
</svg>
