<svg width="221" height="58" viewBox="0 0 221 58" fill="none" xmlns="http://www.w3.org/2000/svg">
<path d="M126.441 0.100473C127.564 0.100473 127.87 0.301418 127.87 4.32032V8.03781C127.87 11.9562 127.564 12.3581 126.441 12.3581H113.277V56.2647C113.277 57.2694 112.052 57.4703 107.562 57.4703H105.215C100.724 57.4703 99.9079 57.2694 99.9079 56.2647V12.4586H86.7433C85.6207 12.4586 85.3146 12.1572 85.3146 8.13828V4.32032C85.3146 0.100473 85.6207 0.100473 86.7433 0.100473H126.441ZM150.219 1.30614C150.219 0.502363 148.994 0.100473 144.708 0.100473H142.259C137.769 0.100473 136.952 0.502363 136.952 1.30614V56.2647C136.952 57.2694 137.769 57.4703 142.259 57.4703H144.708C148.994 57.4703 150.219 57.2694 150.219 56.2647V1.30614ZM214.715 0.100473H210.837C205.837 0.100473 205.531 0.602836 205.122 1.50709L197.469 19.6926C194.917 25.721 192.264 32.2517 191.244 35.5673C190.325 32.1512 188.59 27.7304 185.018 19.2907L177.365 1.40662C176.854 0.301418 174.915 0 170.731 0H166.343C162.057 0 161.241 0.40189 161.241 1.20567V56.1642C161.241 57.1689 162.057 57.3699 166.547 57.3699H168.996C173.385 57.3699 174.609 57.1689 174.609 56.1642V23.7115H174.915C174.915 23.7115 175.324 25.2186 175.936 26.6252L184.814 47.0212C185.223 47.9254 185.631 48.3273 189.815 48.3273H192.468C196.652 48.3273 196.958 48.0259 197.367 47.0212L205.429 27.3286C206.245 25.52 206.755 23.6111 206.755 23.6111H207.061V56.2647C207.061 57.2694 207.878 57.4703 212.47 57.4703H214.817C219.103 57.4703 220.328 57.2694 220.328 56.2647V1.30614C220.226 0.502363 219.001 0.100473 214.715 0.100473Z" fill="#004691"/>
<path d="M66.4352 12.3571H3.36769C2.44923 12.3571 1.63282 11.9553 1.02051 11.3524C0.408204 10.7496 0 9.9458 0 9.04155V3.41508C0 2.51083 0.408204 1.70705 1.02051 1.10421C1.63282 0.501378 2.44923 0.0994873 3.36769 0.0994873H66.4352C67.3537 0.0994873 68.1701 0.501378 68.7824 1.10421C69.3947 1.70705 69.8029 2.51083 69.8029 3.41508V9.04155C69.8029 9.9458 69.3947 10.7496 68.7824 11.3524C68.1701 12.0557 67.3537 12.3571 66.4352 12.3571ZM27.8599 22.7058H3.36769C2.44923 22.7058 1.63282 23.1077 1.02051 23.7106C0.408204 24.3134 0 25.1172 0 26.0214V31.6479C0 32.5521 0.408204 33.3559 1.02051 33.9588C1.63282 34.5616 2.44923 34.9635 3.36769 34.9635H27.962V22.7058H27.8599ZM68.7824 23.6101C68.1701 23.0072 67.3537 22.6054 66.4352 22.6054H41.8409V34.863H66.4352C67.3537 34.863 68.1701 34.4611 68.7824 33.8583C69.3947 33.2554 69.8029 32.4517 69.8029 31.5474V25.9209C69.8029 25.0167 69.3947 24.2129 68.7824 23.6101ZM68.7824 46.2164C68.1701 45.6136 67.3537 45.2117 66.4352 45.2117H41.8409V57.4693H66.4352C67.3537 57.4693 68.1701 57.0675 68.7824 56.4646C69.3947 55.8618 69.8029 55.058 69.8029 54.1537V48.5273C69.8029 47.623 69.3947 46.8193 68.7824 46.2164ZM27.8599 45.2117H3.36769C2.44923 45.2117 1.63282 45.6136 1.02051 46.2164C0.408204 46.8193 0 47.623 0 48.5273V54.1537C0 55.058 0.408204 55.8618 1.02051 56.4646C1.63282 57.0675 2.44923 57.4693 3.36769 57.4693H27.962V45.2117H27.8599Z" fill="#EB0028"/>
</svg>
