<svg width="40" height="41" viewBox="0 0 40 41" fill="none" xmlns="http://www.w3.org/2000/svg">
<path d="M31.8675 10.8357C31.3587 11.7555 30.8499 12.6753 30.2024 13.7331C31.1737 13.4572 31.9601 13.2272 32.9314 12.9973C32.7926 13.2272 32.7464 13.3652 32.6539 13.4572C30.9887 14.7909 30.3874 16.4466 30.2024 18.5621C29.1848 28.5421 17.1585 34.3369 8.55505 29.048C8.41629 28.956 8.32378 28.864 8 28.6341C10.544 28.5881 12.718 28.1282 14.7532 26.6105C12.533 26.1506 11.0066 25.0468 10.174 22.9312C10.8215 22.8852 11.3304 22.8393 11.8854 22.7933C9.80394 21.6895 8.32378 20.2178 8.18502 17.7343C8.87884 17.8723 9.48015 18.0102 10.4515 18.2402C8.46254 16.0786 7.76873 13.9171 8.9251 11.5256C10.5903 12.7673 12.2092 14.0551 13.9669 15.1588C15.7708 16.2626 17.7598 16.7685 19.7025 16.7685C19.9338 15.4348 19.9338 14.147 20.3963 13.0433C21.6915 9.96189 25.6694 9.04208 28.3059 11.1117C29.6936 12.1694 29.6936 12.1694 31.22 11.1576C31.405 11.0197 31.6363 10.8817 31.8675 10.7437C31.775 10.7437 31.8213 10.7897 31.8675 10.8357Z" fill="white"/>
<rect x="-0.5" y="0.5" width="39" height="40" transform="matrix(-1 0 0 1 39 0)" stroke="white"/>
</svg>
