<svg width="40" height="41" viewBox="0 0 40 41" fill="none" xmlns="http://www.w3.org/2000/svg">
<path d="M17.3464 23.3022C19.2892 22.3364 21.1394 21.4166 23.1283 20.4048C21.0931 19.393 19.2429 18.4732 17.3464 17.5534V23.3022ZM20.168 29.189C17.5777 29.051 15.0337 28.959 12.4897 28.821C10.5007 28.7291 9.02056 27.1654 9.02056 25.1418C9.02056 21.9685 8.9743 18.8411 9.02056 15.6677C9.02056 13.6902 10.5007 12.0345 12.536 12.0345C17.6703 11.9885 22.8045 11.9885 27.9388 12.0345C29.9278 12.0805 31.3617 13.6442 31.408 15.6218C31.4542 18.8411 31.4542 22.0604 31.408 25.2798C31.408 27.2114 29.9278 28.7291 28.0314 28.821C25.3486 28.959 22.712 29.051 20.168 29.189Z" fill="white"/>
<rect x="-0.5" y="0.5" width="39" height="40" transform="matrix(-1 0 0 1 39 0)" stroke="white"/>
</svg>
